<?xml version="1.0" encoding="UTF-8" standalone="no"?>
<!-- Created with Inkscape (http://www.inkscape.org/) -->

<svg
   version="1.1"
   id="svg2"
   xml:space="preserve"
   width="743.42249"
   height="441.92252"
   viewBox="0 0 743.42249 441.92252"
   sodipodi:docname="b4788a82f6b6560d79ae2956155599e1.ai"
   xmlns:inkscape="http://www.inkscape.org/namespaces/inkscape"
   xmlns:sodipodi="http://sodipodi.sourceforge.net/DTD/sodipodi-0.dtd"
   xmlns="http://www.w3.org/2000/svg"
   xmlns:svg="http://www.w3.org/2000/svg"><defs
     id="defs6"><clipPath
       clipPathUnits="userSpaceOnUse"
       id="clipPath20"><path
         d="M 0,612 H 792 V 0 H 0 Z"
         id="path18" /></clipPath><clipPath
       clipPathUnits="userSpaceOnUse"
       id="clipPath264"><path
         d="M 0,612 H 792 V 0 H 0 Z"
         id="path262" /></clipPath><clipPath
       clipPathUnits="userSpaceOnUse"
       id="clipPath300"><path
         d="M 0,612 H 792 V 0 H 0 Z"
         id="path298" /></clipPath></defs><sodipodi:namedview
     id="namedview4"
     pagecolor="#ffffff"
     bordercolor="#666666"
     borderopacity="1.0"
     inkscape:pageshadow="2"
     inkscape:pageopacity="0.0"
     inkscape:pagecheckerboard="0" /><g
     id="g8"
     inkscape:groupmode="layer"
     inkscape:label="b4788a82f6b6560d79ae2956155599e1"
     transform="matrix(1.3333333,0,0,-1.3333333,-60.026665,759.22931)"><path
       d="M 522.516,557.065 H 45.541 v 12.102 h 476.975 z"
       style="fill:#c2c4c6;fill-opacity:1;fill-rule:nonzero;stroke:none"
       id="path10" /><path
       d="M 522.59,483.812 H 45.145 v 85.485 H 522.59 Z"
       style="fill:none;stroke:#231f20;stroke-width:0.25;stroke-linecap:butt;stroke-linejoin:miter;stroke-miterlimit:4;stroke-dasharray:none;stroke-opacity:1"
       id="path12" /><g
       id="g14"><g
         id="g16"
         clip-path="url(#clipPath20)"><g
           id="g22"
           transform="translate(58.1743,560.397)"><path
             d="m 0,0 c -1.53,0 -2.305,0.883 -2.305,2.305 0,1.323 0.765,2.503 2.521,2.503 0.306,0 0.693,-0.037 1.009,-0.126 L 1.134,3.826 c -0.333,0.108 -0.666,0.162 -0.99,0.162 -0.918,0 -1.413,-0.666 -1.413,-1.593 0,-1.008 0.54,-1.54 1.467,-1.54 0.351,0 0.702,0.081 0.982,0.216 L 1.26,0.207 C 0.874,0.072 0.459,0 0,0"
             style="fill:#455560;fill-opacity:1;fill-rule:nonzero;stroke:none"
             id="path24" /></g><g
           id="g26"
           transform="translate(60.6035,560.4595)"><path
             d="M 0,0 V 4.682 H 0.972 V 0.847 H 2.584 V 0 Z"
             style="fill:#455560;fill-opacity:1;fill-rule:nonzero;stroke:none"
             id="path28" /></g><path
           d="m 64.167,565.141 h 0.972 v -4.682 h -0.972 z"
           style="fill:#455560;fill-opacity:1;fill-rule:nonzero;stroke:none"
           id="path30" /><g
           id="g32"
           transform="translate(66.7583,560.4595)"><path
             d="M 0,0 V 4.682 H 2.755 V 3.916 H 0.972 V 2.773 H 2.674 V 2.035 H 0.972 V 0.775 H 2.755 V 0 Z"
             style="fill:#455560;fill-opacity:1;fill-rule:nonzero;stroke:none"
             id="path34" /></g><g
           id="g36"
           transform="translate(73.9048,560.4595)"><path
             d="m 0,0 -1.611,2.539 c -0.181,0.279 -0.351,0.612 -0.477,0.892 h -0.01 C -2.08,3.17 -2.07,2.881 -2.07,2.449 L -2.062,0 H -3.007 V 4.682 H -1.71 L -0.135,2.188 C 0.045,1.9 0.225,1.594 0.378,1.27 H 0.387 C 0.369,1.566 0.36,2.018 0.36,2.62 L 0.351,4.682 H 1.296 V 0 Z"
             style="fill:#455560;fill-opacity:1;fill-rule:nonzero;stroke:none"
             id="path38" /></g><g
           id="g40"
           transform="translate(78.394,564.313)"><path
             d="M 0,0 V -3.854 H -0.973 V 0 H -2.269 V 0.828 H 1.296 V 0 Z"
             style="fill:#455560;fill-opacity:1;fill-rule:nonzero;stroke:none"
             id="path42" /></g><g
           id="g44"
           transform="translate(80.6436,560.4595)"><path
             d="M 0,0 V 4.682 H 2.755 V 3.916 H 0.972 V 2.773 H 2.674 V 2.035 H 0.972 V 0.775 H 2.755 V 0 Z"
             style="fill:#455560;fill-opacity:1;fill-rule:nonzero;stroke:none"
             id="path46" /></g><g
           id="g48"
           transform="translate(149.8994,564.3853)"><path
             d="m 0,0 c -0.18,0 -0.351,0 -0.477,-0.01 v -1.584 c 0.108,-0.027 0.288,-0.035 0.414,-0.035 0.604,0 0.973,0.287 0.973,0.836 C 0.91,-0.333 0.604,0 0,0 m -0.063,-2.404 c -0.117,0 -0.297,0.009 -0.414,0.018 v -1.54 h -0.972 v 4.682 c 0.396,0.01 0.981,0.027 1.53,0.027 1.189,0 1.864,-0.567 1.864,-1.512 0,-1.027 -0.82,-1.675 -2.008,-1.675"
             style="fill:#455560;fill-opacity:1;fill-rule:nonzero;stroke:none"
             id="path50" /></g><g
           id="g52"
           transform="translate(154.3184,564.4214)"><path
             d="m 0,0 c -0.162,0 -0.288,0 -0.414,-0.019 v -1.349 c 0.135,-0.01 0.297,-0.019 0.45,-0.019 0.513,0 0.846,0.298 0.846,0.739 C 0.882,-0.226 0.549,0 0,0 m 0.973,-3.962 -1.342,1.928 H -0.414 V -3.962 H -1.386 V 0.72 c 0.342,0.017 0.954,0.027 1.53,0.027 1.117,0 1.765,-0.432 1.765,-1.297 0,-0.764 -0.532,-1.224 -1.279,-1.341 0.108,-0.126 0.234,-0.305 0.378,-0.505 L 2.17,-3.962 Z"
             style="fill:#455560;fill-opacity:1;fill-rule:nonzero;stroke:none"
             id="path54" /></g><g
           id="g56"
           transform="translate(159.5298,564.3755)"><path
             d="m 0,0 c -0.711,0 -1.333,-0.539 -1.333,-1.548 0,-0.891 0.379,-1.593 1.297,-1.593 0.747,0 1.359,0.504 1.359,1.548 C 1.323,-0.549 0.801,0 0,0 m -0.09,-3.996 c -1.521,0 -2.278,0.972 -2.278,2.377 0,1.539 1.135,2.466 2.431,2.466 1.359,0 2.305,-0.792 2.305,-2.376 0,-1.549 -1.117,-2.467 -2.458,-2.467"
             style="fill:#455560;fill-opacity:1;fill-rule:nonzero;stroke:none"
             id="path58" /></g><g
           id="g60"
           transform="translate(164.8018,562.0259)"><path
             d="m 0,0 v -1.566 h -0.972 v 1.558 L -2.61,3.115 h 1.071 L -0.846,1.773 C -0.711,1.504 -0.585,1.225 -0.468,0.91 h 0.009 c 0.126,0.324 0.279,0.63 0.423,0.909 l 0.684,1.296 h 1.009 z"
             style="fill:#455560;fill-opacity:1;fill-rule:nonzero;stroke:none"
             id="path62" /></g><g
           id="g64"
           transform="translate(167.2944,560.4595)"><path
             d="M 0,0 V 4.682 H 2.755 V 3.916 H 0.972 V 2.773 H 2.674 V 2.035 H 0.972 V 0.775 H 2.755 V 0 Z"
             style="fill:#455560;fill-opacity:1;fill-rule:nonzero;stroke:none"
             id="path66" /></g><g
           id="g68"
           transform="translate(173.334,560.397)"><path
             d="m 0,0 c -1.53,0 -2.305,0.883 -2.305,2.305 0,1.323 0.765,2.503 2.521,2.503 0.306,0 0.693,-0.037 1.009,-0.126 L 1.134,3.826 c -0.333,0.108 -0.666,0.162 -0.99,0.162 -0.918,0 -1.413,-0.666 -1.413,-1.593 0,-1.008 0.54,-1.54 1.467,-1.54 0.351,0 0.702,0.081 0.982,0.216 L 1.261,0.207 C 0.874,0.072 0.459,0 0,0"
             style="fill:#455560;fill-opacity:1;fill-rule:nonzero;stroke:none"
             id="path70" /></g><g
           id="g72"
           transform="translate(177.4199,564.313)"><path
             d="M 0,0 V -3.854 H -0.973 V 0 H -2.269 V 0.828 H 1.296 V 0 Z"
             style="fill:#455560;fill-opacity:1;fill-rule:nonzero;stroke:none"
             id="path74" /></g><g
           id="g76"
           transform="translate(181.4687,564.3755)"><path
             d="m 0,0 c -0.711,0 -1.333,-0.539 -1.333,-1.548 0,-0.891 0.379,-1.593 1.297,-1.593 0.747,0 1.359,0.504 1.359,1.548 C 1.323,-0.549 0.801,0 0,0 m -0.09,-3.996 c -1.521,0 -2.278,0.972 -2.278,2.377 0,1.539 1.135,2.466 2.431,2.466 1.359,0 2.305,-0.792 2.305,-2.376 0,-1.549 -1.117,-2.467 -2.458,-2.467"
             style="fill:#455560;fill-opacity:1;fill-rule:nonzero;stroke:none"
             id="path78" /></g><g
           id="g80"
           transform="translate(399.1484,560.397)"><path
             d="m 0,0 c -1.531,0 -2.304,0.883 -2.304,2.305 0,1.323 0.765,2.503 2.521,2.503 0.304,0 0.693,-0.037 1.008,-0.126 L 1.135,3.826 c -0.334,0.108 -0.666,0.162 -0.99,0.162 -0.918,0 -1.415,-0.666 -1.415,-1.593 0,-1.008 0.541,-1.54 1.467,-1.54 0.352,0 0.703,0.081 0.983,0.216 L 1.26,0.207 C 0.873,0.072 0.459,0 0,0"
             style="fill:#455560;fill-opacity:1;fill-rule:nonzero;stroke:none"
             id="path82" /></g><g
           id="g84"
           transform="translate(403.5117,564.3755)"><path
             d="m 0,0 c -0.711,0 -1.332,-0.539 -1.332,-1.548 0,-0.891 0.377,-1.593 1.297,-1.593 0.746,0 1.359,0.504 1.359,1.548 C 1.324,-0.549 0.801,0 0,0 m -0.09,-3.996 c -1.521,0 -2.277,0.972 -2.277,2.377 0,1.539 1.135,2.466 2.429,2.466 1.36,0 2.305,-0.792 2.305,-2.376 0,-1.549 -1.115,-2.467 -2.457,-2.467"
             style="fill:#455560;fill-opacity:1;fill-rule:nonzero;stroke:none"
             id="path86" /></g><g
           id="g88"
           transform="translate(407.0293,560.4595)"><path
             d="M 0,0 V 4.682 H 0.973 V 0.847 H 2.584 V 0 Z"
             style="fill:#455560;fill-opacity:1;fill-rule:nonzero;stroke:none"
             id="path90" /></g><g
           id="g92"
           transform="translate(412.5098,564.3755)"><path
             d="m 0,0 c -0.711,0 -1.332,-0.539 -1.332,-1.548 0,-0.891 0.379,-1.593 1.297,-1.593 0.748,0 1.359,0.504 1.359,1.548 C 1.324,-0.549 0.803,0 0,0 m -0.09,-3.996 c -1.521,0 -2.277,0.972 -2.277,2.377 0,1.539 1.135,2.466 2.431,2.466 1.36,0 2.305,-0.792 2.305,-2.376 0,-1.549 -1.117,-2.467 -2.459,-2.467"
             style="fill:#455560;fill-opacity:1;fill-rule:nonzero;stroke:none"
             id="path94" /></g><g
           id="g96"
           transform="translate(417.4141,564.4214)"><path
             d="m 0,0 c -0.162,0 -0.287,0 -0.414,-0.019 v -1.349 c 0.135,-0.01 0.297,-0.019 0.451,-0.019 0.512,0 0.846,0.298 0.846,0.739 C 0.883,-0.226 0.549,0 0,0 m 0.973,-3.962 -1.342,1.928 H -0.414 V -3.962 H -1.387 V 0.72 c 0.342,0.017 0.955,0.027 1.532,0.027 1.115,0 1.763,-0.432 1.763,-1.297 0,-0.764 -0.531,-1.224 -1.277,-1.341 0.107,-0.126 0.234,-0.305 0.377,-0.505 L 2.17,-3.962 Z"
             style="fill:#455560;fill-opacity:1;fill-rule:nonzero;stroke:none"
             id="path98" /></g><g
           id="g100"
           transform="translate(420.6719,560.4595)"><path
             d="M 0,0 V 4.682 H 2.756 V 3.916 H 0.973 V 2.773 H 2.674 V 2.035 H 0.973 V 0.775 H 2.756 V 0 Z"
             style="fill:#455560;fill-opacity:1;fill-rule:nonzero;stroke:none"
             id="path102" /></g><g
           id="g104"
           transform="translate(425.5488,560.3696)"><path
             d="m 0,0 c -0.322,0 -0.701,0.055 -0.963,0.117 l 0.037,0.873 c 0.27,-0.107 0.639,-0.179 1.035,-0.179 0.442,0 0.864,0.198 0.864,0.657 0,0.828 -2.061,0.395 -2.061,1.917 0,0.883 0.684,1.468 1.918,1.468 0.27,0 0.629,-0.037 0.891,-0.082 L 1.684,3.943 C 1.432,4.024 1.062,4.078 0.793,4.078 0.199,4.078 -0.062,3.844 -0.062,3.493 -0.062,2.691 2.027,3.043 2.027,1.576 2.027,0.621 1.197,0 0,0"
             style="fill:#455560;fill-opacity:1;fill-rule:nonzero;stroke:none"
             id="path106" /></g><g
           id="g108"
           transform="translate(385.5991,569.2969)"><path
             d="M 0,0 V -85.849"
             style="fill:none;stroke:#231f20;stroke-width:0.25;stroke-linecap:butt;stroke-linejoin:miter;stroke-miterlimit:4;stroke-dasharray:none;stroke-opacity:1"
             id="path110" /></g><g
           id="g112"
           transform="translate(137.1152,569.2969)"><path
             d="M 0,0 V -85.849"
             style="fill:none;stroke:#231f20;stroke-width:0.25;stroke-linecap:butt;stroke-linejoin:miter;stroke-miterlimit:4;stroke-dasharray:none;stroke-opacity:1"
             id="path114" /></g><g
           id="g116"
           transform="translate(147.269,548.3286)"><path
             d="M 0,0 H 1.056 V -7.208 H 4.51 V -8.083 H 0 Z"
             style="fill:#231f20;fill-opacity:1;fill-rule:nonzero;stroke:none"
             id="path118" /></g><g
           id="g120"
           transform="translate(153.4009,543.1357)"><path
             d="m 0,0 c 0,-1.271 0.72,-2.231 1.751,-2.231 1.007,0 1.763,0.947 1.763,2.255 0,0.983 -0.492,2.219 -1.739,2.219 C 0.54,2.243 0,1.091 0,0 m 4.593,0.06 c 0,-2.147 -1.499,-3.082 -2.89,-3.082 -1.559,0 -2.783,1.151 -2.783,2.986 0,1.931 1.284,3.07 2.879,3.07 1.667,0 2.794,-1.211 2.794,-2.974"
             style="fill:#231f20;fill-opacity:1;fill-rule:nonzero;stroke:none"
             id="path122" /></g><g
           id="g124"
           transform="translate(163.2388,543.7593)"><path
             d="m 0,0 c 0,0.18 -0.012,0.336 -0.06,0.468 -0.191,0.623 -0.695,1.127 -1.475,1.127 -1.007,0 -1.727,-0.851 -1.727,-2.195 0,-1.139 0.588,-2.087 1.715,-2.087 0.66,0 1.247,0.408 1.463,1.08 0.06,0.18 0.084,0.383 0.084,0.564 z m 1.056,-2.663 c 0,-1.343 -0.276,-2.147 -0.828,-2.662 -0.576,-0.516 -1.391,-0.696 -2.123,-0.696 -0.695,0 -1.463,0.168 -1.931,0.48 l 0.264,0.815 c 0.384,-0.252 0.984,-0.467 1.703,-0.467 1.08,0 1.871,0.564 1.871,2.039 v 0.635 h -0.024 c -0.312,-0.54 -0.947,-0.971 -1.847,-0.971 -1.439,0 -2.471,1.223 -2.471,2.83 0,1.967 1.284,3.071 2.627,3.071 1.008,0 1.547,-0.516 1.811,-0.996 H 0.132 L 0.168,2.291 H 1.104 C 1.067,1.883 1.056,1.403 1.056,0.708 Z"
             style="fill:#231f20;fill-opacity:1;fill-rule:nonzero;stroke:none"
             id="path126" /></g><g
           id="g128"
           transform="translate(166.6968,543.1357)"><path
             d="m 0,0 c 0,-1.271 0.72,-2.231 1.751,-2.231 1.007,0 1.763,0.947 1.763,2.255 0,0.983 -0.492,2.219 -1.739,2.219 C 0.54,2.243 0,1.091 0,0 m 4.593,0.06 c 0,-2.147 -1.499,-3.082 -2.89,-3.082 -1.559,0 -2.783,1.151 -2.783,2.986 0,1.931 1.284,3.07 2.879,3.07 1.667,0 2.794,-1.211 2.794,-2.974"
             style="fill:#231f20;fill-opacity:1;fill-rule:nonzero;stroke:none"
             id="path130" /></g><g
           id="g132"
           transform="translate(173.8965,547.4414)"><path
             d="M 0,0 V -1.392 H 1.511 V -2.195 H 0 v -3.13 c 0,-0.72 0.204,-1.128 0.792,-1.128 0.287,0 0.455,0.024 0.611,0.072 L 1.451,-7.184 C 1.247,-7.256 0.923,-7.328 0.516,-7.328 c -0.492,0 -0.888,0.168 -1.14,0.444 -0.288,0.323 -0.408,0.839 -0.408,1.523 v 3.166 h -0.899 v 0.803 h 0.899 v 1.08 z"
             style="fill:#231f20;fill-opacity:1;fill-rule:nonzero;stroke:none"
             id="path134" /></g><path
           d="m 176.597,546.05 h 1.056 v -5.805 h -1.056 z m 1.175,1.631 c 0,-0.36 -0.252,-0.648 -0.671,-0.648 -0.384,0 -0.636,0.288 -0.636,0.648 0,0.36 0.264,0.66 0.66,0.66 0.383,0 0.647,-0.288 0.647,-0.66"
           style="fill:#231f20;fill-opacity:1;fill-rule:nonzero;stroke:none"
           id="path136" /><g
           id="g138"
           transform="translate(180.4482,542.6079)"><path
             d="m 0,0 c 0,-0.156 0.012,-0.3 0.048,-0.432 0.192,-0.732 0.827,-1.235 1.583,-1.235 1.116,0 1.763,0.911 1.763,2.243 0,1.151 -0.611,2.146 -1.727,2.146 C 0.947,2.722 0.264,2.219 0.072,1.427 0.036,1.295 0,1.139 0,1.007 Z m -1.043,1.547 c 0,0.744 -0.024,1.343 -0.048,1.895 h 0.935 l 0.06,-0.995 h 0.024 c 0.42,0.707 1.115,1.115 2.063,1.115 1.415,0 2.47,-1.187 2.47,-2.938 0,-2.087 -1.283,-3.119 -2.65,-3.119 -0.768,0 -1.439,0.336 -1.787,0.912 H 0 v -3.154 h -1.043 z"
             style="fill:#231f20;fill-opacity:1;fill-rule:nonzero;stroke:none"
             id="path140" /></g><g
           id="g142"
           transform="translate(186.8921,543.1357)"><path
             d="m 0,0 c 0,-1.271 0.72,-2.231 1.751,-2.231 1.007,0 1.763,0.947 1.763,2.255 0,0.983 -0.492,2.219 -1.739,2.219 C 0.54,2.243 0,1.091 0,0 m 4.593,0.06 c 0,-2.147 -1.499,-3.082 -2.89,-3.082 -1.559,0 -2.783,1.151 -2.783,2.986 0,1.931 1.284,3.07 2.879,3.07 1.667,0 2.794,-1.211 2.794,-2.974"
             style="fill:#231f20;fill-opacity:1;fill-rule:nonzero;stroke:none"
             id="path144" /></g><g
           id="g146"
           transform="translate(399.7773,545.938)"><path
             d="M 0,0 V -52.41 H 30.352 V -7.791 L 22.562,0 Z"
             style="fill:none;stroke:#231f20;stroke-width:0.178;stroke-linecap:butt;stroke-linejoin:miter;stroke-miterlimit:4;stroke-dasharray:none;stroke-opacity:1"
             id="path148" /></g><path
           d="m 426.711,507.524 h -23.516 v 23.516 h 23.516 z"
           style="fill:#00263e;fill-opacity:1;fill-rule:nonzero;stroke:none"
           id="path150" /><g
           id="g152"
           transform="translate(405.1934,539.2017)"><path
             d="m 0,0 c -0.158,0 -0.283,0 -0.404,-0.006 v -1.678 c 0.107,-0.017 0.228,-0.025 0.347,-0.025 0.629,0.008 1.034,0.348 1.034,0.883 C 0.977,-0.297 0.668,0 0,0 m -0.062,-2.188 c -0.108,0 -0.229,0 -0.342,0.014 v -1.627 h -0.578 v 4.254 c 0.314,0.014 0.66,0.026 1.044,0.026 0.977,0 1.52,-0.493 1.52,-1.249 0,-0.832 -0.682,-1.418 -1.644,-1.418"
             style="fill:#455560;fill-opacity:1;fill-rule:nonzero;stroke:none"
             id="path154" /></g><g
           id="g156"
           transform="translate(408.9785,536.8442)"><path
             d="m 0,0 c -1.09,0 -1.33,-0.334 -1.33,-0.617 0,-0.266 0.189,-0.436 0.478,-0.436 0.512,0 0.852,0.504 0.852,0.996 z m 0.031,-1.443 c 0,0.22 0,0.447 0.031,0.625 H 0.051 C -0.102,-1.203 -0.498,-1.5 -1.016,-1.5 c -0.515,0 -0.869,0.277 -0.869,0.775 0,0.688 0.699,1.121 1.885,1.121 v 0.235 c 0,0.433 -0.17,0.668 -0.687,0.668 -0.295,0 -0.674,-0.096 -0.946,-0.26 l -0.056,0.486 c 0.302,0.125 0.681,0.227 1.097,0.227 0.901,0 1.158,-0.422 1.158,-1.047 v -1.246 c 0,-0.297 0.008,-0.631 0.014,-0.902 z"
             style="fill:#455560;fill-opacity:1;fill-rule:nonzero;stroke:none"
             id="path158" /></g><g
           id="g160"
           transform="translate(412.6133,535.4009)"><path
             d="m 0,0 v 2.023 c 0,0.442 -0.119,0.7 -0.535,0.7 -0.518,0 -0.889,-0.524 -0.889,-1.217 V 0 H -1.99 v 3.133 h 0.547 c 0,-0.184 -0.012,-0.473 -0.051,-0.656 L -1.48,2.471 c 0.181,0.435 0.566,0.724 1.103,0.724 0.717,0 0.943,-0.447 0.943,-1.002 V 0 Z"
             style="fill:#455560;fill-opacity:1;fill-rule:nonzero;stroke:none"
             id="path162" /></g><g
           id="g164"
           transform="translate(415.1465,535.3501)"><path
             d="m 0,0 c -0.643,0 -0.838,0.266 -0.838,0.939 v 1.803 h -0.644 v 0.442 h 0.644 v 1.013 l 0.567,0.158 V 3.184 H 0.604 V 2.742 H -0.271 V 1.141 c 0,-0.516 0.093,-0.655 0.447,-0.655 0.144,0 0.303,0.026 0.428,0.057 V 0.064 C 0.428,0.025 0.201,0 0,0"
             style="fill:#455560;fill-opacity:1;fill-rule:nonzero;stroke:none"
             id="path166" /></g><g
           id="g168"
           transform="translate(417.6953,538.1177)"><path
             d="m 0,0 c -0.453,0 -0.883,-0.348 -0.883,-1.123 0,-0.756 0.309,-1.172 0.883,-1.172 0.467,0 0.869,0.365 0.869,1.166 C 0.869,-0.416 0.58,0 0,0 m -0.068,-2.773 c -0.852,0 -1.407,0.492 -1.407,1.593 0,0.92 0.58,1.653 1.526,1.653 0.801,0 1.412,-0.442 1.412,-1.571 0,-0.945 -0.606,-1.675 -1.531,-1.675"
             style="fill:#455560;fill-opacity:1;fill-rule:nonzero;stroke:none"
             id="path170" /></g><g
           id="g172"
           transform="translate(421.9355,535.4009)"><path
             d="m 0,0 v 2.023 c 0,0.442 -0.119,0.7 -0.535,0.7 -0.518,0 -0.889,-0.524 -0.889,-1.217 V 0 H -1.99 v 3.133 h 0.547 c 0,-0.184 -0.012,-0.473 -0.051,-0.656 L -1.48,2.471 c 0.181,0.435 0.566,0.724 1.103,0.724 0.717,0 0.943,-0.447 0.943,-1.002 V 0 Z"
             style="fill:#455560;fill-opacity:1;fill-rule:nonzero;stroke:none"
             id="path174" /></g><g
           id="g176"
           transform="translate(424.6621,538.1743)"><path
             d="M 0,0 C -0.408,0 -0.699,-0.309 -0.762,-0.77 H 0.701 C 0.713,-0.309 0.441,0 0,0 m 1.262,-1.172 h -2.049 c -0.025,-0.838 0.322,-1.197 0.99,-1.197 0.32,0 0.66,0.074 0.914,0.195 L 1.166,-2.635 C 0.863,-2.76 0.498,-2.83 0.107,-2.83 c -0.962,0 -1.48,0.504 -1.48,1.607 0,0.94 0.51,1.639 1.398,1.639 0.883,0 1.254,-0.6 1.254,-1.318 0,-0.075 -0.006,-0.162 -0.017,-0.27"
             style="fill:#455560;fill-opacity:1;fill-rule:nonzero;stroke:none"
             id="path178" /></g><g
           id="g180"
           transform="translate(436.4375,545.938)"><path
             d="M 0,0 V -52.41 H 30.352 V -7.791 L 22.562,0 Z"
             style="fill:none;stroke:#231f20;stroke-width:0.178;stroke-linecap:butt;stroke-linejoin:miter;stroke-miterlimit:4;stroke-dasharray:none;stroke-opacity:1"
             id="path182" /></g><path
           d="m 463.371,507.524 h -23.516 v 23.516 h 23.516 z"
           style="fill:#fdbb31;fill-opacity:1;fill-rule:nonzero;stroke:none"
           id="path184" /><g
           id="g186"
           transform="translate(441.8535,539.2017)"><path
             d="m 0,0 c -0.158,0 -0.283,0 -0.404,-0.006 v -1.678 c 0.107,-0.017 0.228,-0.025 0.347,-0.025 0.629,0.008 1.034,0.348 1.034,0.883 C 0.977,-0.297 0.668,0 0,0 m -0.062,-2.188 c -0.108,0 -0.229,0 -0.342,0.014 v -1.627 h -0.578 v 4.254 c 0.314,0.014 0.66,0.026 1.044,0.026 0.977,0 1.52,-0.493 1.52,-1.249 0,-0.832 -0.682,-1.418 -1.644,-1.418"
             style="fill:#455560;fill-opacity:1;fill-rule:nonzero;stroke:none"
             id="path188" /></g><g
           id="g190"
           transform="translate(445.6387,536.8442)"><path
             d="m 0,0 c -1.09,0 -1.33,-0.334 -1.33,-0.617 0,-0.266 0.189,-0.436 0.478,-0.436 0.512,0 0.852,0.504 0.852,0.996 z m 0.031,-1.443 c 0,0.22 0,0.447 0.031,0.625 H 0.051 C -0.102,-1.203 -0.498,-1.5 -1.016,-1.5 c -0.515,0 -0.869,0.277 -0.869,0.775 0,0.688 0.699,1.121 1.885,1.121 v 0.235 c 0,0.433 -0.17,0.668 -0.687,0.668 -0.295,0 -0.674,-0.096 -0.946,-0.26 l -0.056,0.486 c 0.302,0.125 0.681,0.227 1.097,0.227 0.901,0 1.158,-0.422 1.158,-1.047 v -1.246 c 0,-0.297 0.008,-0.631 0.014,-0.902 z"
             style="fill:#455560;fill-opacity:1;fill-rule:nonzero;stroke:none"
             id="path192" /></g><g
           id="g194"
           transform="translate(449.2734,535.4009)"><path
             d="m 0,0 v 2.023 c 0,0.442 -0.119,0.7 -0.535,0.7 -0.518,0 -0.889,-0.524 -0.889,-1.217 V 0 H -1.99 v 3.133 h 0.547 c 0,-0.184 -0.012,-0.473 -0.051,-0.656 L -1.48,2.471 c 0.181,0.435 0.566,0.724 1.103,0.724 0.717,0 0.943,-0.447 0.943,-1.002 V 0 Z"
             style="fill:#455560;fill-opacity:1;fill-rule:nonzero;stroke:none"
             id="path196" /></g><g
           id="g198"
           transform="translate(451.8066,535.3501)"><path
             d="m 0,0 c -0.643,0 -0.838,0.266 -0.838,0.939 v 1.803 h -0.644 v 0.442 h 0.644 v 1.013 l 0.567,0.158 V 3.184 H 0.604 V 2.742 H -0.271 V 1.141 c 0,-0.516 0.093,-0.655 0.447,-0.655 0.144,0 0.303,0.026 0.428,0.057 V 0.064 C 0.428,0.025 0.201,0 0,0"
             style="fill:#455560;fill-opacity:1;fill-rule:nonzero;stroke:none"
             id="path200" /></g><g
           id="g202"
           transform="translate(454.3555,538.1177)"><path
             d="m 0,0 c -0.453,0 -0.883,-0.348 -0.883,-1.123 0,-0.756 0.309,-1.172 0.883,-1.172 0.467,0 0.869,0.365 0.869,1.166 C 0.869,-0.416 0.58,0 0,0 m -0.068,-2.773 c -0.852,0 -1.407,0.492 -1.407,1.593 0,0.92 0.58,1.653 1.526,1.653 0.801,0 1.412,-0.442 1.412,-1.571 0,-0.945 -0.606,-1.675 -1.531,-1.675"
             style="fill:#455560;fill-opacity:1;fill-rule:nonzero;stroke:none"
             id="path204" /></g><g
           id="g206"
           transform="translate(458.5957,535.4009)"><path
             d="m 0,0 v 2.023 c 0,0.442 -0.119,0.7 -0.535,0.7 -0.518,0 -0.889,-0.524 -0.889,-1.217 V 0 H -1.99 v 3.133 h 0.547 c 0,-0.184 -0.012,-0.473 -0.051,-0.656 L -1.48,2.471 c 0.181,0.435 0.566,0.724 1.103,0.724 0.717,0 0.943,-0.447 0.943,-1.002 V 0 Z"
             style="fill:#455560;fill-opacity:1;fill-rule:nonzero;stroke:none"
             id="path208" /></g><g
           id="g210"
           transform="translate(461.3223,538.1743)"><path
             d="M 0,0 C -0.408,0 -0.699,-0.309 -0.762,-0.77 H 0.701 C 0.713,-0.309 0.441,0 0,0 m 1.262,-1.172 h -2.049 c -0.025,-0.838 0.322,-1.197 0.99,-1.197 0.32,0 0.66,0.074 0.914,0.195 L 1.166,-2.635 C 0.863,-2.76 0.498,-2.83 0.107,-2.83 c -0.962,0 -1.48,0.504 -1.48,1.607 0,0.94 0.51,1.639 1.398,1.639 0.883,0 1.254,-0.6 1.254,-1.318 0,-0.075 -0.006,-0.162 -0.017,-0.27"
             style="fill:#455560;fill-opacity:1;fill-rule:nonzero;stroke:none"
             id="path212" /></g><g
           id="g214"
           transform="translate(441.6621,497.8989)"><path
             d="M 0,0 V 3.854 L -1.016,3.421 -1.152,4.114 0.182,4.627 H 0.838 V 0 Z"
             style="fill:#58595b;fill-opacity:1;fill-rule:nonzero;stroke:none"
             id="path216" /></g><g
           id="g218"
           transform="translate(443.8047,497.8989)"><path
             d="M 0,0 V 0.648 L 1.187,1.647 C 1.926,2.25 2.322,2.619 2.322,3.15 2.322,3.655 1.99,4.024 1.359,4.024 0.936,4.024 0.486,3.844 0.225,3.682 L 0.107,4.385 c 0.397,0.188 0.873,0.324 1.424,0.324 1.098,0 1.674,-0.586 1.674,-1.414 0,-0.666 -0.387,-1.189 -1.152,-1.81 L 1.107,0.702 1.09,0.693 C 1.521,0.721 2.467,0.729 3.412,0.729 V 0 Z"
             style="fill:#58595b;fill-opacity:1;fill-rule:nonzero;stroke:none"
             id="path220" /></g><g
           id="g222"
           transform="translate(448.8633,496.1255)"><path
             d="m 0,0 c -0.27,0 -0.549,0.036 -0.793,0.1 l 0.082,0.719 c 0.215,-0.063 0.486,-0.117 0.783,-0.117 0.998,0 1.512,0.54 1.512,1.242 0,0.901 -0.811,1.261 -2.063,1.134 v 0.649 c 1.217,0 1.946,0.378 1.946,1.17 0,0.558 -0.387,0.901 -1.008,0.901 -0.379,0 -0.756,-0.109 -1.063,-0.279 l -0.082,0.693 c 0.407,0.162 0.831,0.252 1.29,0.252 1.187,0 1.718,-0.657 1.718,-1.423 0,-0.693 -0.449,-1.232 -1.097,-1.494 V 3.538 C 1.988,3.412 2.457,2.818 2.457,2.053 2.457,0.909 1.574,0 0,0"
             style="fill:#58595b;fill-opacity:1;fill-rule:nonzero;stroke:none"
             id="path224" /></g><g
           id="g226"
           transform="translate(452.9844,496.1255)"><path
             d="m 0,0 c -0.225,0 -0.439,0.018 -0.646,0.054 l 0.07,0.738 c 0.181,-0.036 0.414,-0.063 0.64,-0.063 1.108,0 1.657,0.568 1.657,1.306 0,0.738 -0.594,1.296 -1.701,1.296 -0.172,0 -0.307,0 -0.487,-0.009 V 6.4 H 2.396 V 5.608 H 0.299 V 4.016 C 1.783,4.016 2.584,3.232 2.584,2.16 2.584,0.918 1.504,0 0,0"
             style="fill:#58595b;fill-opacity:1;fill-rule:nonzero;stroke:none"
             id="path228" /></g><g
           id="g230"
           transform="translate(461.1582,497.8267)"><path
             d="m 0,0 c -1.953,0 -2.764,1.242 -2.764,2.953 0,1.855 0.918,3.25 2.971,3.25 0.469,0 0.945,-0.072 1.377,-0.18 L 1.494,5.267 C 1.025,5.41 0.576,5.482 0.117,5.482 c -1.387,0 -1.98,-1.062 -1.98,-2.394 0,-1.494 0.648,-2.35 2.06,-2.35 0.442,0 1,0.126 1.36,0.307 L 1.646,0.307 C 1.187,0.117 0.611,0 0,0"
             style="fill:#58595b;fill-opacity:1;fill-rule:nonzero;stroke:none"
             id="path232" /></g><g
           id="g234"
           transform="translate(403.6074,497.0405)"><path
             d="m 0,0 v 0.434 l 0.555,0.538 c 1.332,1.266 1.941,1.941 1.941,2.727 0,0.53 -0.25,1.02 -1.027,1.02 -0.473,0 -0.867,-0.242 -1.108,-0.442 L 0.137,4.774 c 0.353,0.296 0.875,0.53 1.468,0.53 1.124,0 1.596,-0.771 1.596,-1.517 0,-0.963 -0.697,-1.741 -1.797,-2.8 L 0.996,0.602 V 0.586 H 3.33 V 0 Z"
             style="fill:#58595b;fill-opacity:1;fill-rule:nonzero;stroke:none"
             id="path236" /></g><g
           id="g238"
           transform="translate(408.3906,500.5308)"><path
             d="m 0,0 c 0,-0.65 0.393,-1.107 1.002,-1.107 0.473,0 0.844,0.232 1.027,0.546 0.041,0.072 0.065,0.144 0.065,0.264 0,0.891 -0.33,1.572 -1.076,1.572 C 0.426,1.275 0,0.746 0,0 m -0.258,-2.992 c 0.153,-0.018 0.33,0 0.57,0.023 0.409,0.057 0.795,0.217 1.092,0.506 0.344,0.313 0.594,0.77 0.69,1.38 H 2.07 C 1.781,-1.436 1.363,-1.637 0.834,-1.637 c -0.932,0 -1.533,0.706 -1.533,1.596 0,0.987 0.715,1.854 1.781,1.854 1.068,0 1.725,-0.858 1.725,-2.206 0,-1.139 -0.383,-1.941 -0.897,-2.439 C 1.508,-3.225 0.955,-3.467 0.393,-3.529 0.137,-3.57 -0.088,-3.578 -0.258,-3.57 Z"
             style="fill:#58595b;fill-opacity:1;fill-rule:nonzero;stroke:none"
             id="path240" /></g><g
           id="g242"
           transform="translate(414.6172,498.7495)"><path
             d="m 0,0 c 0,0.747 -0.426,1.195 -1.074,1.195 -0.426,0 -0.828,-0.256 -1.02,-0.64 -0.041,-0.081 -0.072,-0.178 -0.072,-0.306 0.008,-0.858 0.408,-1.5 1.154,-1.5 C -0.408,-1.251 0,-0.746 0,0 M 0.199,3.01 C 0.055,3.017 -0.129,3.001 -0.33,2.969 -1.445,2.793 -2.023,1.99 -2.143,1.123 h 0.016 c 0.25,0.338 0.691,0.61 1.268,0.61 0.923,0 1.574,-0.674 1.574,-1.685 0,-0.962 -0.651,-1.845 -1.742,-1.845 -1.108,0 -1.838,0.867 -1.838,2.223 0,1.027 0.361,1.837 0.883,2.35 0.433,0.426 1.011,0.691 1.67,0.77 0.208,0.033 0.384,0.04 0.511,0.04 z"
             style="fill:#58595b;fill-opacity:1;fill-rule:nonzero;stroke:none"
             id="path244" /></g><g
           id="g246"
           transform="translate(419.0703,501.6626)"><path
             d="m 0,0 h -1.99 l -0.199,-1.341 c 0.119,0.016 0.23,0.026 0.423,0.026 0.411,0 0.803,-0.081 1.123,-0.282 0.411,-0.224 0.747,-0.681 0.747,-1.332 0,-1.019 -0.811,-1.781 -1.942,-1.781 -0.568,0 -1.043,0.16 -1.299,0.321 l 0.176,0.536 c 0.217,-0.126 0.643,-0.289 1.123,-0.289 0.658,0 1.236,0.436 1.227,1.133 0,0.674 -0.457,1.148 -1.491,1.148 -0.304,0 -0.539,-0.025 -0.73,-0.049 l 0.338,2.504 H 0 Z"
             style="fill:#58595b;fill-opacity:1;fill-rule:nonzero;stroke:none"
             id="path248" /></g><g
           id="g250"
           transform="translate(425.793,497.2095)"><path
             d="m 0,0 c -0.248,-0.128 -0.77,-0.257 -1.428,-0.257 -1.523,0 -2.664,0.963 -2.664,2.744 0,1.701 1.147,2.84 2.824,2.84 0.666,0 1.1,-0.144 1.284,-0.241 L -0.16,4.517 c -0.256,0.129 -0.635,0.225 -1.084,0.225 -1.266,0 -2.11,-0.811 -2.11,-2.231 0,-1.332 0.762,-2.174 2.071,-2.174 0.431,0 0.867,0.089 1.146,0.225 z"
             style="fill:#58595b;fill-opacity:1;fill-rule:nonzero;stroke:none"
             id="path252" /></g></g></g><text
       transform="matrix(1,0,0,-1,55.8691,536.999)"
       style="font-variant:normal;font-weight:normal;font-stretch:normal;font-size:11.906px;font-family:'Myriad Pro';-inkscape-font-specification:MyriadPro-Regular;writing-mode:lr-tb;fill:#231f20;fill-opacity:1;fill-rule:nonzero;stroke:none"
       id="text256"><tspan
         x="0 7.9651141 14.52532 21.061714 26.395601 28.919674 36.622856"
         y="0"
         sodipodi:role="line"
         id="tspan254">Duoc UC</tspan></text><g
       id="g258"><g
         id="g260"
         clip-path="url(#clipPath264)"><g
           id="g266"
           transform="translate(119.084,256.8896)"><path
             d="M 0,0 C 1.913,-0.442 5.14,-0.442 7.779,-0.442 28.175,-0.591 41.53,10.563 41.53,34.188 41.53,55.464 29.496,65.59 10.128,65.59 5.287,65.59 1.913,65.149 0,64.71 Z m -22.301,80.555 c 8.215,1.471 18.926,2.201 30.08,2.201 18.926,0 31.256,-3.084 40.646,-10.269 10.273,-7.63 16.728,-19.956 16.728,-37.569 0,-18.924 -6.898,-31.987 -16.288,-40.06 -10.415,-8.655 -26.412,-12.764 -45.781,-12.764 -11.593,0 -19.958,0.733 -25.385,1.469 z"
             style="fill:#fdbb31;fill-opacity:1;fill-rule:nonzero;stroke:none"
             id="path268" /></g><g
           id="g270"
           transform="translate(260.2427,263.0498)"><path
             d="m 0,0 c 0,-9.386 0.295,-17.022 0.59,-23.037 h -19.371 l -1.029,10.125 h -0.438 c -2.788,-4.401 -9.54,-11.74 -22.452,-11.74 -14.674,0 -25.237,9.098 -25.237,31.256 v 42.115 h 22.305 V 10.124 c 0,-10.419 3.372,-16.727 11.295,-16.727 6.165,0 9.832,4.253 11.154,7.773 0.588,1.325 0.88,2.94 0.88,4.85 V 48.719 H 0 Z"
             style="fill:#fdbb31;fill-opacity:1;fill-rule:nonzero;stroke:none"
             id="path272" /></g><g
           id="g274"
           transform="translate(305.9912,254.3945)"><path
             d="M 0,0 C 8.803,0 14.229,8.655 14.229,21.566 14.229,32.131 10.125,42.993 0,42.993 -10.568,42.993 -14.673,32.131 -14.673,21.421 -14.673,9.241 -9.538,0 -0.152,0 Z m -0.444,-15.997 c -20.981,0 -37.125,13.793 -37.125,36.98 0,23.186 15.261,38.003 38.447,38.003 21.865,0 36.537,-15.115 36.537,-36.828 0,-26.124 -18.635,-38.155 -37.714,-38.155 z"
             style="fill:#fdbb31;fill-opacity:1;fill-rule:nonzero;stroke:none"
             id="path276" /></g><g
           id="g278"
           transform="translate(409.0117,241.7705)"><path
             d="m 0,0 c -3.961,-1.907 -11.443,-3.373 -19.957,-3.373 -23.182,0 -38.004,14.23 -38.004,36.83 0,20.988 14.38,38.153 41.084,38.153 5.873,0 12.325,-1.027 17.02,-2.788 L -3.375,52.241 c -2.642,1.176 -6.604,2.204 -12.474,2.204 -11.739,0 -19.374,-8.367 -19.225,-20.107 0,-13.206 8.809,-20.249 19.661,-20.249 5.288,0 9.396,0.878 12.768,2.348 z"
             style="fill:#fdbb31;fill-opacity:1;fill-rule:nonzero;stroke:none"
             id="path280" /></g><g
           id="g282"
           transform="translate(451.625,331.1201)"><path
             d="m 0,0 v -52.753 c 0,-15.775 5.979,-23.796 16.587,-23.796 10.876,0 16.856,7.613 16.856,23.796 V 0 h 20.67 v -51.396 c 0,-28.282 -14.278,-41.744 -38.208,-41.744 -23.114,0 -36.715,12.777 -36.715,42.014 V 0 Z"
             style="fill:#00263e;fill-opacity:1;fill-rule:nonzero;stroke:none"
             id="path284" /></g><g
           id="g286"
           transform="translate(587.6475,242.0586)"><path
             d="m 0,0 c -3.807,-1.903 -12.372,-4.078 -23.522,-4.078 -31.68,0 -47.996,19.854 -47.996,45.957 0,31.276 22.301,48.68 50.036,48.68 10.741,0 18.899,-2.176 22.575,-4.081 L -3.125,70.026 c -4.217,1.77 -10.063,3.404 -17.401,3.404 -16.455,0 -29.236,-9.929 -29.236,-30.325 0,-18.355 10.875,-29.914 29.366,-29.914 6.256,0 13.191,1.36 17.271,2.989 z"
             style="fill:#00263e;fill-opacity:1;fill-rule:nonzero;stroke:none"
             id="path288" /></g></g></g><text
       transform="matrix(1,0,0,-1,586.5469,337.4189)"
       style="font-variant:normal;font-weight:normal;font-stretch:normal;font-size:18.7267px;font-family:'Myriad Pro';-inkscape-font-specification:MyriadPro-Regular;writing-mode:lr-tb;fill:#00263e;fill-opacity:1;fill-rule:nonzero;stroke:none"
       id="text292"><tspan
         x="0"
         y="0"
         id="tspan290">R</tspan></text><g
       id="g294"><g
         id="g296"
         clip-path="url(#clipPath300)"><g
           id="g302"
           transform="translate(602.0869,343.8193)"><path
             d="m 0,0 c 0,-5.756 -4.667,-10.427 -10.426,-10.427 -5.755,0 -10.424,4.671 -10.424,10.427 0,5.753 4.669,10.419 10.424,10.419 C -4.667,10.419 0,5.753 0,0 Z"
             style="fill:none;stroke:#00263e;stroke-width:1;stroke-linecap:butt;stroke-linejoin:miter;stroke-miterlimit:10;stroke-dasharray:none;stroke-opacity:1"
             id="path304" /></g></g></g></g></svg>
